<mxfile host="app.diagrams.net" modified="2022-04-20T03:13:53.250Z" agent="5.0 (Windows NT 10.0; Win64; x64) AppleWebKit/537.36 (KHTML, like Gecko) Chrome/99.0.4844.51 Safari/537.36" etag="DRBSkRNIQuGWvs9cZm8k" version="17.4.4" type="github">
  <diagram id="C5RBs43oDa-KdzZeNtuy" name="Page-1">
    <mxGraphModel dx="2249" dy="772" grid="1" gridSize="10" guides="1" tooltips="1" connect="1" arrows="1" fold="1" page="1" pageScale="1" pageWidth="827" pageHeight="1169" math="0" shadow="0">
      <root>
        <mxCell id="WIyWlLk6GJQsqaUBKTNV-0" />
        <mxCell id="WIyWlLk6GJQsqaUBKTNV-1" parent="WIyWlLk6GJQsqaUBKTNV-0" />
        <mxCell id="9vmV6dMqIf-BiLgepAJZ-13" value="" style="edgeStyle=orthogonalEdgeStyle;rounded=0;orthogonalLoop=1;jettySize=auto;html=1;" edge="1" parent="WIyWlLk6GJQsqaUBKTNV-1" source="9vmV6dMqIf-BiLgepAJZ-0" target="9vmV6dMqIf-BiLgepAJZ-2">
          <mxGeometry relative="1" as="geometry" />
        </mxCell>
        <mxCell id="9vmV6dMqIf-BiLgepAJZ-0" value="TrajectoryGenerator()" style="rounded=1;whiteSpace=wrap;html=1;" vertex="1" parent="WIyWlLk6GJQsqaUBKTNV-1">
          <mxGeometry x="235" y="30" width="120" height="60" as="geometry" />
        </mxCell>
        <mxCell id="9vmV6dMqIf-BiLgepAJZ-1" value="TrajectoryAccDecPlan()" style="rounded=1;whiteSpace=wrap;html=1;" vertex="1" parent="WIyWlLk6GJQsqaUBKTNV-1">
          <mxGeometry x="230" y="119" width="130" height="60" as="geometry" />
        </mxCell>
        <mxCell id="9vmV6dMqIf-BiLgepAJZ-14" style="edgeStyle=orthogonalEdgeStyle;rounded=0;orthogonalLoop=1;jettySize=auto;html=1;exitX=0.5;exitY=1;exitDx=0;exitDy=0;entryX=0.5;entryY=0;entryDx=0;entryDy=0;" edge="1" parent="WIyWlLk6GJQsqaUBKTNV-1" source="9vmV6dMqIf-BiLgepAJZ-2" target="9vmV6dMqIf-BiLgepAJZ-11">
          <mxGeometry relative="1" as="geometry" />
        </mxCell>
        <mxCell id="9vmV6dMqIf-BiLgepAJZ-22" style="edgeStyle=orthogonalEdgeStyle;rounded=0;orthogonalLoop=1;jettySize=auto;html=1;entryX=0.5;entryY=0;entryDx=0;entryDy=0;exitX=0.5;exitY=1;exitDx=0;exitDy=0;" edge="1" parent="WIyWlLk6GJQsqaUBKTNV-1" source="9vmV6dMqIf-BiLgepAJZ-2" target="9vmV6dMqIf-BiLgepAJZ-12">
          <mxGeometry relative="1" as="geometry" />
        </mxCell>
        <mxCell id="9vmV6dMqIf-BiLgepAJZ-2" value="ProfilePreprocess()" style="rounded=1;whiteSpace=wrap;html=1;" vertex="1" parent="WIyWlLk6GJQsqaUBKTNV-1">
          <mxGeometry x="230" y="200" width="130" height="60" as="geometry" />
        </mxCell>
        <mxCell id="9vmV6dMqIf-BiLgepAJZ-21" value="" style="edgeStyle=orthogonalEdgeStyle;rounded=0;orthogonalLoop=1;jettySize=auto;html=1;" edge="1" parent="WIyWlLk6GJQsqaUBKTNV-1" source="9vmV6dMqIf-BiLgepAJZ-4" target="9vmV6dMqIf-BiLgepAJZ-8">
          <mxGeometry relative="1" as="geometry" />
        </mxCell>
        <mxCell id="9vmV6dMqIf-BiLgepAJZ-4" value="MoveJProfilePlan()" style="rounded=1;whiteSpace=wrap;html=1;" vertex="1" parent="WIyWlLk6GJQsqaUBKTNV-1">
          <mxGeometry x="100" y="380" width="130" height="60" as="geometry" />
        </mxCell>
        <mxCell id="9vmV6dMqIf-BiLgepAJZ-25" value="" style="edgeStyle=orthogonalEdgeStyle;rounded=0;orthogonalLoop=1;jettySize=auto;html=1;" edge="1" parent="WIyWlLk6GJQsqaUBKTNV-1" source="9vmV6dMqIf-BiLgepAJZ-5" target="9vmV6dMqIf-BiLgepAJZ-6">
          <mxGeometry relative="1" as="geometry" />
        </mxCell>
        <mxCell id="9vmV6dMqIf-BiLgepAJZ-5" value="GetProfileInputParameters()" style="rounded=1;whiteSpace=wrap;html=1;" vertex="1" parent="WIyWlLk6GJQsqaUBKTNV-1">
          <mxGeometry x="420" y="379.5" width="160" height="60" as="geometry" />
        </mxCell>
        <mxCell id="9vmV6dMqIf-BiLgepAJZ-6" value="ProfilePlan()" style="rounded=1;whiteSpace=wrap;html=1;" vertex="1" parent="WIyWlLk6GJQsqaUBKTNV-1">
          <mxGeometry x="440" y="460.5" width="120" height="60" as="geometry" />
        </mxCell>
        <mxCell id="9vmV6dMqIf-BiLgepAJZ-7" value="GetJointSpaceProfileInputParameters()" style="rounded=1;whiteSpace=wrap;html=1;" vertex="1" parent="WIyWlLk6GJQsqaUBKTNV-1">
          <mxGeometry x="50" y="461" width="230" height="60" as="geometry" />
        </mxCell>
        <mxCell id="9vmV6dMqIf-BiLgepAJZ-18" value="" style="edgeStyle=orthogonalEdgeStyle;rounded=0;orthogonalLoop=1;jettySize=auto;html=1;" edge="1" parent="WIyWlLk6GJQsqaUBKTNV-1" source="9vmV6dMqIf-BiLgepAJZ-8" target="9vmV6dMqIf-BiLgepAJZ-9">
          <mxGeometry relative="1" as="geometry" />
        </mxCell>
        <mxCell id="9vmV6dMqIf-BiLgepAJZ-39" style="edgeStyle=orthogonalEdgeStyle;rounded=0;orthogonalLoop=1;jettySize=auto;html=1;entryX=0.5;entryY=0;entryDx=0;entryDy=0;" edge="1" parent="WIyWlLk6GJQsqaUBKTNV-1" source="9vmV6dMqIf-BiLgepAJZ-8" target="9vmV6dMqIf-BiLgepAJZ-28">
          <mxGeometry relative="1" as="geometry" />
        </mxCell>
        <mxCell id="9vmV6dMqIf-BiLgepAJZ-40" style="edgeStyle=orthogonalEdgeStyle;rounded=0;orthogonalLoop=1;jettySize=auto;html=1;exitX=0;exitY=0.5;exitDx=0;exitDy=0;entryX=0.5;entryY=0;entryDx=0;entryDy=0;" edge="1" parent="WIyWlLk6GJQsqaUBKTNV-1" source="9vmV6dMqIf-BiLgepAJZ-8" target="9vmV6dMqIf-BiLgepAJZ-32">
          <mxGeometry relative="1" as="geometry" />
        </mxCell>
        <mxCell id="9vmV6dMqIf-BiLgepAJZ-41" style="edgeStyle=orthogonalEdgeStyle;rounded=0;orthogonalLoop=1;jettySize=auto;html=1;exitX=0;exitY=0.5;exitDx=0;exitDy=0;entryX=0.5;entryY=0;entryDx=0;entryDy=0;" edge="1" parent="WIyWlLk6GJQsqaUBKTNV-1" source="9vmV6dMqIf-BiLgepAJZ-8" target="9vmV6dMqIf-BiLgepAJZ-36">
          <mxGeometry relative="1" as="geometry" />
        </mxCell>
        <mxCell id="9vmV6dMqIf-BiLgepAJZ-8" value="ProfilePlan()" style="rounded=1;whiteSpace=wrap;html=1;" vertex="1" parent="WIyWlLk6GJQsqaUBKTNV-1">
          <mxGeometry x="100" y="596" width="130" height="60" as="geometry" />
        </mxCell>
        <mxCell id="9vmV6dMqIf-BiLgepAJZ-54" style="edgeStyle=orthogonalEdgeStyle;rounded=0;orthogonalLoop=1;jettySize=auto;html=1;exitX=0;exitY=0.5;exitDx=0;exitDy=0;entryX=0.5;entryY=0;entryDx=0;entryDy=0;" edge="1" parent="WIyWlLk6GJQsqaUBKTNV-1" source="9vmV6dMqIf-BiLgepAJZ-9" target="9vmV6dMqIf-BiLgepAJZ-42">
          <mxGeometry relative="1" as="geometry" />
        </mxCell>
        <mxCell id="9vmV6dMqIf-BiLgepAJZ-56" style="edgeStyle=orthogonalEdgeStyle;rounded=0;orthogonalLoop=1;jettySize=auto;html=1;exitX=0;exitY=0.5;exitDx=0;exitDy=0;entryX=0.5;entryY=0;entryDx=0;entryDy=0;" edge="1" parent="WIyWlLk6GJQsqaUBKTNV-1" source="9vmV6dMqIf-BiLgepAJZ-9" target="9vmV6dMqIf-BiLgepAJZ-45">
          <mxGeometry relative="1" as="geometry" />
        </mxCell>
        <mxCell id="9vmV6dMqIf-BiLgepAJZ-57" style="edgeStyle=orthogonalEdgeStyle;rounded=0;orthogonalLoop=1;jettySize=auto;html=1;exitX=0;exitY=0.5;exitDx=0;exitDy=0;entryX=0.5;entryY=0;entryDx=0;entryDy=0;" edge="1" parent="WIyWlLk6GJQsqaUBKTNV-1" source="9vmV6dMqIf-BiLgepAJZ-9" target="9vmV6dMqIf-BiLgepAJZ-48">
          <mxGeometry relative="1" as="geometry" />
        </mxCell>
        <mxCell id="9vmV6dMqIf-BiLgepAJZ-9" value="MutilAxisProfileSynchronousProcess()" style="rounded=1;whiteSpace=wrap;html=1;" vertex="1" parent="WIyWlLk6GJQsqaUBKTNV-1">
          <mxGeometry x="55" y="800" width="220" height="60" as="geometry" />
        </mxCell>
        <mxCell id="9vmV6dMqIf-BiLgepAJZ-20" style="edgeStyle=orthogonalEdgeStyle;rounded=0;orthogonalLoop=1;jettySize=auto;html=1;exitX=0.5;exitY=1;exitDx=0;exitDy=0;entryX=0.5;entryY=0;entryDx=0;entryDy=0;" edge="1" parent="WIyWlLk6GJQsqaUBKTNV-1" source="9vmV6dMqIf-BiLgepAJZ-11" target="9vmV6dMqIf-BiLgepAJZ-4">
          <mxGeometry relative="1" as="geometry" />
        </mxCell>
        <mxCell id="9vmV6dMqIf-BiLgepAJZ-11" value="JOINT_SPACE" style="rounded=1;whiteSpace=wrap;html=1;fillColor=#dae8fc;strokeColor=#6c8ebf;" vertex="1" parent="WIyWlLk6GJQsqaUBKTNV-1">
          <mxGeometry x="100" y="300" width="130" height="60" as="geometry" />
        </mxCell>
        <mxCell id="9vmV6dMqIf-BiLgepAJZ-24" style="edgeStyle=orthogonalEdgeStyle;rounded=0;orthogonalLoop=1;jettySize=auto;html=1;exitX=0.5;exitY=1;exitDx=0;exitDy=0;entryX=0.5;entryY=0;entryDx=0;entryDy=0;" edge="1" parent="WIyWlLk6GJQsqaUBKTNV-1" source="9vmV6dMqIf-BiLgepAJZ-12" target="9vmV6dMqIf-BiLgepAJZ-5">
          <mxGeometry relative="1" as="geometry" />
        </mxCell>
        <mxCell id="9vmV6dMqIf-BiLgepAJZ-12" value="CARTESIAN_SPACE" style="rounded=1;whiteSpace=wrap;html=1;fillColor=#d5e8d4;strokeColor=#82b366;" vertex="1" parent="WIyWlLk6GJQsqaUBKTNV-1">
          <mxGeometry x="435" y="299.5" width="130" height="60" as="geometry" />
        </mxCell>
        <mxCell id="9vmV6dMqIf-BiLgepAJZ-28" value="TVProfilePlan()" style="swimlane;fontStyle=0;childLayout=stackLayout;horizontal=1;startSize=30;horizontalStack=0;resizeParent=1;resizeParentMax=0;resizeLast=0;collapsible=1;marginBottom=0;" vertex="1" parent="WIyWlLk6GJQsqaUBKTNV-1">
          <mxGeometry x="-490" y="652" width="140" height="90" as="geometry">
            <mxRectangle x="-250" y="540" width="110" height="30" as="alternateBounds" />
          </mxGeometry>
        </mxCell>
        <mxCell id="9vmV6dMqIf-BiLgepAJZ-29" value="ComputeTVProfileData()" style="text;strokeColor=none;fillColor=none;align=left;verticalAlign=middle;spacingLeft=4;spacingRight=4;overflow=hidden;points=[[0,0.5],[1,0.5]];portConstraint=eastwest;rotatable=0;" vertex="1" parent="9vmV6dMqIf-BiLgepAJZ-28">
          <mxGeometry y="30" width="140" height="30" as="geometry" />
        </mxCell>
        <mxCell id="9vmV6dMqIf-BiLgepAJZ-30" value="TVProfileIntegrate()" style="text;strokeColor=none;fillColor=none;align=left;verticalAlign=middle;spacingLeft=4;spacingRight=4;overflow=hidden;points=[[0,0.5],[1,0.5]];portConstraint=eastwest;rotatable=0;" vertex="1" parent="9vmV6dMqIf-BiLgepAJZ-28">
          <mxGeometry y="60" width="140" height="30" as="geometry" />
        </mxCell>
        <mxCell id="9vmV6dMqIf-BiLgepAJZ-32" value="TAProfilePlan()" style="swimlane;fontStyle=0;childLayout=stackLayout;horizontal=1;startSize=30;horizontalStack=0;resizeParent=1;resizeParentMax=0;resizeLast=0;collapsible=1;marginBottom=0;" vertex="1" parent="WIyWlLk6GJQsqaUBKTNV-1">
          <mxGeometry x="-320" y="650" width="140" height="90" as="geometry">
            <mxRectangle x="-250" y="540" width="110" height="30" as="alternateBounds" />
          </mxGeometry>
        </mxCell>
        <mxCell id="9vmV6dMqIf-BiLgepAJZ-33" value="ComputeTAProfileData()" style="text;strokeColor=none;fillColor=none;align=left;verticalAlign=middle;spacingLeft=4;spacingRight=4;overflow=hidden;points=[[0,0.5],[1,0.5]];portConstraint=eastwest;rotatable=0;" vertex="1" parent="9vmV6dMqIf-BiLgepAJZ-32">
          <mxGeometry y="30" width="140" height="30" as="geometry" />
        </mxCell>
        <mxCell id="9vmV6dMqIf-BiLgepAJZ-34" value="StypeIntegrate()" style="text;strokeColor=none;fillColor=none;align=left;verticalAlign=middle;spacingLeft=4;spacingRight=4;overflow=hidden;points=[[0,0.5],[1,0.5]];portConstraint=eastwest;rotatable=0;" vertex="1" parent="9vmV6dMqIf-BiLgepAJZ-32">
          <mxGeometry y="60" width="140" height="30" as="geometry" />
        </mxCell>
        <mxCell id="9vmV6dMqIf-BiLgepAJZ-36" value="TJProfilePlan()" style="swimlane;fontStyle=0;childLayout=stackLayout;horizontal=1;startSize=30;horizontalStack=0;resizeParent=1;resizeParentMax=0;resizeLast=0;collapsible=1;marginBottom=0;" vertex="1" parent="WIyWlLk6GJQsqaUBKTNV-1">
          <mxGeometry x="-160" y="650" width="160" height="90" as="geometry">
            <mxRectangle x="-250" y="540" width="110" height="30" as="alternateBounds" />
          </mxGeometry>
        </mxCell>
        <mxCell id="9vmV6dMqIf-BiLgepAJZ-37" value="ProfilePlanByTimeLaw()" style="text;strokeColor=none;fillColor=none;align=left;verticalAlign=middle;spacingLeft=4;spacingRight=4;overflow=hidden;points=[[0,0.5],[1,0.5]];portConstraint=eastwest;rotatable=0;" vertex="1" parent="9vmV6dMqIf-BiLgepAJZ-36">
          <mxGeometry y="30" width="160" height="30" as="geometry" />
        </mxCell>
        <mxCell id="9vmV6dMqIf-BiLgepAJZ-38" value="SetProfileDataByTimeLaw()" style="text;strokeColor=none;fillColor=none;align=left;verticalAlign=middle;spacingLeft=4;spacingRight=4;overflow=hidden;points=[[0,0.5],[1,0.5]];portConstraint=eastwest;rotatable=0;" vertex="1" parent="9vmV6dMqIf-BiLgepAJZ-36">
          <mxGeometry y="60" width="160" height="30" as="geometry" />
        </mxCell>
        <mxCell id="9vmV6dMqIf-BiLgepAJZ-42" value="TVProfileSynchronous()" style="swimlane;fontStyle=0;childLayout=stackLayout;horizontal=1;startSize=30;horizontalStack=0;resizeParent=1;resizeParentMax=0;resizeLast=0;collapsible=1;marginBottom=0;" vertex="1" parent="WIyWlLk6GJQsqaUBKTNV-1">
          <mxGeometry x="-480" y="850" width="140" height="90" as="geometry">
            <mxRectangle x="-250" y="540" width="110" height="30" as="alternateBounds" />
          </mxGeometry>
        </mxCell>
        <mxCell id="9vmV6dMqIf-BiLgepAJZ-43" value="ComputeTVProfileData()" style="text;strokeColor=none;fillColor=none;align=left;verticalAlign=middle;spacingLeft=4;spacingRight=4;overflow=hidden;points=[[0,0.5],[1,0.5]];portConstraint=eastwest;rotatable=0;" vertex="1" parent="9vmV6dMqIf-BiLgepAJZ-42">
          <mxGeometry y="30" width="140" height="30" as="geometry" />
        </mxCell>
        <mxCell id="9vmV6dMqIf-BiLgepAJZ-44" value="TVProfileIntegrate()" style="text;strokeColor=none;fillColor=none;align=left;verticalAlign=middle;spacingLeft=4;spacingRight=4;overflow=hidden;points=[[0,0.5],[1,0.5]];portConstraint=eastwest;rotatable=0;" vertex="1" parent="9vmV6dMqIf-BiLgepAJZ-42">
          <mxGeometry y="60" width="140" height="30" as="geometry" />
        </mxCell>
        <mxCell id="9vmV6dMqIf-BiLgepAJZ-45" value="TAProfileSynchronous()" style="swimlane;fontStyle=0;childLayout=stackLayout;horizontal=1;startSize=30;horizontalStack=0;resizeParent=1;resizeParentMax=0;resizeLast=0;collapsible=1;marginBottom=0;" vertex="1" parent="WIyWlLk6GJQsqaUBKTNV-1">
          <mxGeometry x="-320" y="850" width="140" height="90" as="geometry">
            <mxRectangle x="-250" y="540" width="110" height="30" as="alternateBounds" />
          </mxGeometry>
        </mxCell>
        <mxCell id="9vmV6dMqIf-BiLgepAJZ-46" value="ComputeTAProfileData()" style="text;strokeColor=none;fillColor=none;align=left;verticalAlign=middle;spacingLeft=4;spacingRight=4;overflow=hidden;points=[[0,0.5],[1,0.5]];portConstraint=eastwest;rotatable=0;" vertex="1" parent="9vmV6dMqIf-BiLgepAJZ-45">
          <mxGeometry y="30" width="140" height="30" as="geometry" />
        </mxCell>
        <mxCell id="9vmV6dMqIf-BiLgepAJZ-47" value="StypeIntegrate()" style="text;strokeColor=none;fillColor=none;align=left;verticalAlign=middle;spacingLeft=4;spacingRight=4;overflow=hidden;points=[[0,0.5],[1,0.5]];portConstraint=eastwest;rotatable=0;" vertex="1" parent="9vmV6dMqIf-BiLgepAJZ-45">
          <mxGeometry y="60" width="140" height="30" as="geometry" />
        </mxCell>
        <mxCell id="9vmV6dMqIf-BiLgepAJZ-48" value="TJProfileSynchronous()" style="swimlane;fontStyle=0;childLayout=stackLayout;horizontal=1;startSize=30;horizontalStack=0;resizeParent=1;resizeParentMax=0;resizeLast=0;collapsible=1;marginBottom=0;" vertex="1" parent="WIyWlLk6GJQsqaUBKTNV-1">
          <mxGeometry x="-160" y="850" width="160" height="90" as="geometry">
            <mxRectangle x="-250" y="540" width="110" height="30" as="alternateBounds" />
          </mxGeometry>
        </mxCell>
        <mxCell id="9vmV6dMqIf-BiLgepAJZ-49" value="ComputeTJProfileData()" style="text;strokeColor=none;fillColor=none;align=left;verticalAlign=middle;spacingLeft=4;spacingRight=4;overflow=hidden;points=[[0,0.5],[1,0.5]];portConstraint=eastwest;rotatable=0;" vertex="1" parent="9vmV6dMqIf-BiLgepAJZ-48">
          <mxGeometry y="30" width="160" height="30" as="geometry" />
        </mxCell>
        <mxCell id="9vmV6dMqIf-BiLgepAJZ-50" value="TJProfileIntegrate()" style="text;strokeColor=none;fillColor=none;align=left;verticalAlign=middle;spacingLeft=4;spacingRight=4;overflow=hidden;points=[[0,0.5],[1,0.5]];portConstraint=eastwest;rotatable=0;" vertex="1" parent="9vmV6dMqIf-BiLgepAJZ-48">
          <mxGeometry y="60" width="160" height="30" as="geometry" />
        </mxCell>
      </root>
    </mxGraphModel>
  </diagram>
</mxfile>
